<?xml version="1.0" encoding="utf-8"?>
<!-- Generator: Adobe Illustrator 24.2.3, SVG Export Plug-In . SVG Version: 6.00 Build 0)  -->
<svg version="1.1" id="Layer_1" xmlns="http://www.w3.org/2000/svg" xmlns:xlink="http://www.w3.org/1999/xlink" x="0px" y="0px"
	 viewBox="0 0 250 106" style="enable-background:new 0 0 250 106;" xml:space="preserve">
<style type="text/css">
	.st0{fill:#007DC5;}
</style>
<g>
	<g>
		<path class="st0" d="M0.36,28.65v-0.16c0-16.32,12.8-29.13,30.17-29.13c9.84,0,16.8,3.04,22.72,8.16l-9.12,10.96
			c-4-3.36-8-5.28-13.52-5.28c-8.08,0-14.32,6.8-14.32,15.36v0.16c0,9.04,6.32,15.52,15.2,15.52c3.76,0,6.64-0.8,8.96-2.32v-6.8
			H29.41V23.77h25.77v25.21c-5.92,4.88-14.16,8.64-24.32,8.64C13.41,57.62,0.36,45.62,0.36,28.65"/>
		<path class="st0" d="M88.14,0.49h21.6c20,0,31.61,11.52,31.61,27.69v0.16c0,16.16-11.76,28.17-31.93,28.17H88.14V0.49z
			 M109.99,42.74c9.28,0,15.44-5.12,15.44-14.16v-0.16c0-8.96-6.16-14.16-15.44-14.16h-6.32v28.49H109.99z"/>
		<polygon class="st0" points="213.04,35.53 191.76,0.49 209.44,0.49 220.97,20.89 232.57,0.49 249.93,0.49 228.65,35.29 
			228.65,56.5 213.04,56.5 		"/>
	</g>
	<g>
		<path class="st0" d="M63.13,28.41v-6.88c4.3-0.43,7.31-1.72,7.31-4.56c-4.39,0.26-8.86-1.89-8.86-8.26c0-5.85,4.47-9.03,9.29-9.03
			c6.71,0,10.15,5.51,10.15,11.7C81.03,22.99,74.4,28.41,63.13,28.41"/>
		<path class="st0" d="M192.7,29.24l-5.35-12.65l-6.89-16.29h-16.08l-6.6,15.67l-5.98,14.2l-11.29,26.81h17.74l2.89-7.27l0.64-1.67
			c1.05,0.63,5.47,3.03,11.5,3.03c3.36,0,7.23-0.75,11.28-2.98l0.62,1.62l2.89,7.28h16.34L192.7,29.24z M170.99,20.39l0.64-1.61
			l0.64,1.62l0.95,2.4l0,0.01l5.21,13.46c-1.85,1.56-4.23,2.51-6.83,2.51c-2.63,0-5.03-0.97-6.89-2.55L170.99,20.39L170.99,20.39z
			 M182.49,46.78C182.49,46.78,182.49,46.78,182.49,46.78l0.03,0.05v0L182.49,46.78z"/>
	</g>
</g>
<g>
	<path class="st0" d="M67.42,96.03H62v9.73h-7.14V73.32h13.26c7.74,0,12.42,4.59,12.42,11.22v0.09
		C80.54,92.14,74.7,96.03,67.42,96.03z M73.31,84.67c0-3.2-2.23-4.91-5.79-4.91H62v9.92h5.66c3.57,0,5.66-2.13,5.66-4.91V84.67z"/>
	<path class="st0" d="M104.41,105.77l-2.97-7.28H87.73l-2.97,7.28h-7.28l13.91-32.68h6.58l13.91,32.68H104.41z M94.59,81.66
		l-4.31,10.52h8.62L94.59,81.66z"/>
	<path class="st0" d="M133.8,105.77l-6.95-10.38h-5.61v10.38h-7.14V73.32h14.83c7.65,0,12.24,4.03,12.24,10.71v0.09
		c0,5.24-2.83,8.53-6.95,10.06l7.93,11.59H133.8z M133.94,84.4c0-3.06-2.13-4.64-5.61-4.64h-7.09v9.32h7.23
		c3.48,0,5.47-1.85,5.47-4.59V84.4z"/>
	<path class="st0" d="M167.64,105.77l-10.06-13.81l-3.75,3.89v9.92h-7.14V73.32h7.14V87.5L167,73.32h8.62l-13.21,13.77l13.81,18.68
		H167.64z"/>
	<path class="st0" d="M190.22,106.23c-4.91,0-9.87-1.72-13.77-5.19l4.22-5.05c2.92,2.41,5.98,3.94,9.69,3.94
		c2.92,0,4.68-1.16,4.68-3.06v-0.09c0-1.81-1.11-2.74-6.54-4.13c-6.54-1.67-10.75-3.48-10.75-9.92v-0.09
		c0-5.89,4.73-9.78,11.36-9.78c4.73,0,8.76,1.48,12.05,4.13l-3.71,5.38c-2.87-1.99-5.7-3.2-8.44-3.2s-4.17,1.25-4.17,2.83v0.09
		c0,2.13,1.39,2.83,7,4.27c6.58,1.71,10.29,4.08,10.29,9.73v0.09C202.14,102.61,197.22,106.23,190.22,106.23z"/>
</g>
</svg>
